<svg xmlns="http://www.w3.org/2000/svg" viewBox="0 0 48 48"><path fill="#1877F2" d="M24,4C12.954,4,4,12.954,4,24c0,9.961,7.266,18.239,16.711,19.725V29.771h-5.029V24h5.029v-4.363c0-4.965,2.95-7.712,7.485-7.712c2.172,0,4.444,0.388,4.444,0.388v4.884h-2.503c-2.46,0-3.228,1.527-3.228,3.093V24h5.5l-0.879,5.771h-4.621v13.954C36.734,42.239,44,33.961,44,24C44,12.954,35.046,4,24,4z"/><path fill="#FFF" d="M30.738,29.771l0.879-5.771h-5.5v-3.729c0-1.566,0.768-3.093,3.228-3.093h2.503v-4.884c0,0-2.272-0.388-4.444-0.388c-4.535,0-7.485,2.747-7.485,7.712V24h-5.029v5.771h5.029v13.954C20.627,43.856,21.284,44,22.711,44c1.427,0,2.084-0.144,3.136-0.275V29.771H30.738z"/></svg>
